<svg width="17" height="19" viewBox="0 0 17 19" fill="none" xmlns="http://www.w3.org/2000/svg">
<path d="M15.7857 7.71875H10.3214V2.375C10.3214 1.71928 9.77766 1.1875 9.10714 1.1875H7.89286C7.22234 1.1875 6.67857 1.71928 6.67857 2.375V7.71875H1.21429C0.543772 7.71875 0 8.25053 0 8.90625V10.0938C0 10.7495 0.543772 11.2812 1.21429 11.2812H6.67857V16.625C6.67857 17.2807 7.22234 17.8125 7.89286 17.8125H9.10714C9.77766 17.8125 10.3214 17.2807 10.3214 16.625V11.2812H15.7857C16.4562 11.2812 17 10.7495 17 10.0938V8.90625C17 8.25053 16.4562 7.71875 15.7857 7.71875Z" fill="#939393"/>
</svg>
