<svg width="18" height="18" viewBox="0 0 18 18" fill="none" xmlns="http://www.w3.org/2000/svg">
<path d="M8.925 10.665L15.4608 10.6667C15.9581 10.6667 16.435 10.8642 16.7867 11.2158C17.1383 11.5675 17.3358 12.0444 17.3358 12.5417V13.2958C17.3358 13.7462 17.2385 14.1912 17.0505 14.6004C16.8625 15.0096 16.5883 15.3733 16.2467 15.6667C14.9417 16.7867 13.075 17.3333 10.6667 17.3333H10.5175C10.7125 16.9417 10.7192 16.4792 10.5392 16.0817L10.6667 16.0842C12.8 16.0842 14.3817 15.62 15.4325 14.7175C15.6374 14.5416 15.8018 14.3234 15.9145 14.0781C16.0273 13.8327 16.0857 13.5659 16.0858 13.2958V12.5417C16.0858 12.3759 16.02 12.2169 15.9028 12.0997C15.7856 11.9825 15.6266 11.9167 15.4608 11.9167H8.98083C9.01865 11.4988 8.99959 11.0777 8.92417 10.665H8.925ZM4.41667 7.75C5.1289 7.75016 5.82636 7.95315 6.42744 8.33521C7.02852 8.71728 7.50837 9.26262 7.81085 9.90743C8.11332 10.5522 8.22591 11.2699 8.13545 11.9763C8.04498 12.6828 7.7552 13.3489 7.3 13.8967L9.6525 16.2417C9.76491 16.3529 9.83097 16.5026 9.83736 16.6606C9.84376 16.8187 9.79002 16.9732 9.68697 17.0932C9.58392 17.2131 9.43923 17.2896 9.28205 17.3071C9.12488 17.3246 8.96692 17.2819 8.84 17.1875L8.76917 17.1267L6.35 14.7133C5.85468 15.0113 5.29718 15.1908 4.72104 15.2376C4.1449 15.2845 3.56572 15.1976 3.02874 14.9836C2.49176 14.7696 2.01151 14.4344 1.62551 14.0042C1.2395 13.5739 0.958195 13.0602 0.803554 12.5032C0.648913 11.9462 0.625125 11.3611 0.734049 10.7934C0.842972 10.2257 1.08166 9.69086 1.43146 9.23067C1.78127 8.77049 2.23272 8.3974 2.75057 8.14055C3.26841 7.88369 3.83862 7.75003 4.41667 7.75ZM4.41667 9C3.75363 9 3.11774 9.26339 2.6489 9.73223C2.18006 10.2011 1.91667 10.837 1.91667 11.5C1.91667 12.163 2.18006 12.7989 2.6489 13.2678C3.11774 13.7366 3.75363 14 4.41667 14C5.07971 14 5.71559 13.7366 6.18443 13.2678C6.65327 12.7989 6.91667 12.163 6.91667 11.5C6.91667 10.837 6.65327 10.2011 6.18443 9.73223C5.71559 9.26339 5.07971 9 4.41667 9ZM10.6667 0.67C11.7717 0.67 12.8315 1.10899 13.6129 1.89039C14.3943 2.67179 14.8333 3.7316 14.8333 4.83667C14.8333 5.94174 14.3943 7.00154 13.6129 7.78295C12.8315 8.56435 11.7717 9.00333 10.6667 9.00333C9.5616 9.00333 8.50179 8.56435 7.72039 7.78295C6.93899 7.00154 6.5 5.94174 6.5 4.83667C6.5 3.7316 6.93899 2.67179 7.72039 1.89039C8.50179 1.10899 9.5616 0.67 10.6667 0.67ZM10.6667 1.92C10.2836 1.92 9.90437 1.99544 9.55051 2.14202C9.19664 2.28859 8.87511 2.50343 8.60427 2.77427C8.33343 3.04511 8.11859 3.36664 7.97202 3.72051C7.82544 4.07437 7.75 4.45364 7.75 4.83667C7.75 5.21969 7.82544 5.59896 7.97202 5.95283C8.11859 6.30669 8.33343 6.62822 8.60427 6.89906C8.87511 7.1699 9.19664 7.38474 9.55051 7.53132C9.90437 7.67789 10.2836 7.75333 10.6667 7.75333C11.4402 7.75333 12.1821 7.44604 12.7291 6.89906C13.276 6.35208 13.5833 5.61022 13.5833 4.83667C13.5833 4.06312 13.276 3.32125 12.7291 2.77427C12.1821 2.22729 11.4402 1.92 10.6667 1.92Z" fill="#85B6FF"/>
</svg>
