<svg width="17" height="18" viewBox="0 0 17 18" fill="none" xmlns="http://www.w3.org/2000/svg">
<g clip-path="url(#clip0_298_2029)">
<path d="M9.423 0.878611C10.1162 0.611961 10.8838 0.611961 11.577 0.878611L15.038 2.20861C15.618 2.43261 16 2.98861 16 3.60961V11.3896C16 11.4636 15.994 11.5376 15.983 11.6096C15.9069 10.7162 15.5645 9.86622 15 9.16961V3.60961C15 3.50843 14.9694 3.40963 14.912 3.32624C14.8547 3.24286 14.7735 3.17883 14.679 3.14261L11.218 1.81161C10.7558 1.63384 10.2442 1.63384 9.782 1.81161L6.32 3.14261C6.22571 3.17899 6.14467 3.24309 6.08754 3.32646C6.03042 3.40983 5.99989 3.50855 6 3.60961V4.70961C5.66798 4.66778 5.33202 4.66778 5 4.70961V3.60961C5.00004 3.30636 5.09199 3.01025 5.26373 2.76032C5.43547 2.51038 5.67893 2.31838 5.962 2.20961L9.422 0.878611H9.423ZM10.6 7.58961C10.4442 7.42163 10.2519 7.29163 10.038 7.20961L6.577 5.87861C5.88376 5.61196 5.11624 5.61196 4.423 5.87861L0.962 7.20861C0.678769 7.31744 0.4352 7.5096 0.263448 7.75973C0.0916963 8.00986 -0.000161885 8.30619 2.14167e-07 8.60961V13.3896C4.03567e-05 13.6929 0.0919928 13.989 0.263731 14.2389C0.43547 14.4888 0.678928 14.6808 0.962 14.7896L4.422 16.1206C5.11554 16.3875 5.88346 16.3875 6.577 16.1206L8.521 15.3726C8.25298 15.136 8.01398 14.8685 7.809 14.5756L6.218 15.1876C5.75584 15.3654 5.24416 15.3654 4.782 15.1876L1.32 13.8566C1.22571 13.8202 1.14467 13.7561 1.08754 13.6728C1.03042 13.5894 0.999894 13.4907 1 13.3896V8.60961C0.999894 8.50855 1.03042 8.40983 1.08754 8.32646C1.14467 8.24309 1.22571 8.17899 1.32 8.14261L4.782 6.81161C5.24416 6.63384 5.75584 6.63384 6.218 6.81161L9.382 8.02861C9.76454 7.82393 10.1748 7.67605 10.6 7.58961ZM8.697 8.47961C8.61208 8.46673 8.52527 8.47603 8.445 8.50661L5.5 9.63961L2.554 8.50661C2.43014 8.459 2.29245 8.46255 2.17121 8.51647C2.04996 8.57038 1.95511 8.67026 1.9075 8.79411C1.85989 8.91797 1.86344 9.05566 1.91736 9.1769C1.97127 9.29815 2.07114 9.393 2.195 9.44061L5 10.5176V13.0076C5 13.1402 5.05268 13.2674 5.14645 13.3612C5.24021 13.4549 5.36739 13.5076 5.5 13.5076C5.63261 13.5076 5.75979 13.4549 5.85355 13.3612C5.94732 13.2674 6 13.1402 6 13.0076V10.5176L7.496 9.94161C7.78845 9.37427 8.19777 8.87532 8.697 8.47761V8.47961ZM13.445 3.50661C13.5066 3.4811 13.5728 3.46818 13.6395 3.46861C13.7062 3.46905 13.7722 3.48284 13.8335 3.50916C13.8948 3.53548 13.9502 3.5738 13.9965 3.62187C14.0427 3.66994 14.0789 3.72678 14.1029 3.78905C14.1268 3.85131 14.1381 3.91775 14.136 3.98443C14.1338 4.05111 14.1184 4.1167 14.0906 4.17733C14.0627 4.23795 14.023 4.29239 13.9738 4.33744C13.9246 4.38248 13.8668 4.41722 13.804 4.43961L11.038 5.50361C10.6914 5.63694 10.3076 5.63694 9.961 5.50361L7.195 4.43961C7.07128 4.39187 6.97158 4.29694 6.91786 4.1757C6.86413 4.05445 6.86076 3.91683 6.9085 3.79311C6.95624 3.66939 7.05117 3.5697 7.17241 3.51597C7.29366 3.46224 7.43128 3.45887 7.555 3.50661L10.32 4.57061C10.4358 4.61531 10.5642 4.61531 10.68 4.57061L13.445 3.50661ZM14.303 14.0966C14.8329 13.388 15.0747 12.5049 14.9798 11.6251C14.8849 10.7453 14.4602 9.93418 13.7913 9.35489C13.1224 8.77559 12.2589 8.47116 11.3746 8.50286C10.4903 8.53456 9.65083 8.90004 9.02513 9.52574C8.39943 10.1514 8.03395 10.9909 8.00225 11.8752C7.97055 12.7595 8.27498 13.623 8.85428 14.2919C9.43357 14.9608 10.2447 15.3855 11.1245 15.4804C12.0043 15.5753 12.8873 15.3335 13.596 14.8036L16.146 17.3536C16.1924 17.4001 16.2475 17.437 16.3082 17.4622C16.3689 17.4874 16.4339 17.5003 16.4996 17.5004C16.5653 17.5004 16.6304 17.4875 16.6911 17.4624C16.7518 17.4373 16.807 17.4005 16.8535 17.3541C16.9 17.3077 16.9369 17.2526 16.9621 17.1919C16.9872 17.1312 17.0002 17.0662 17.0003 17.0005C17.0003 16.9348 16.9874 16.8697 16.9623 16.809C16.9372 16.7483 16.9004 16.6931 16.854 16.6466L14.304 14.0966H14.303ZM14 11.9996C14 12.6627 13.7366 13.2985 13.2678 13.7674C12.7989 14.2362 12.163 14.4996 11.5 14.4996C10.837 14.4996 10.2011 14.2362 9.73223 13.7674C9.26339 13.2985 9 12.6627 9 11.9996C9 11.3366 9.26339 10.7007 9.73223 10.2318C10.2011 9.763 10.837 9.49961 11.5 9.49961C12.163 9.49961 12.7989 9.763 13.2678 10.2318C13.7366 10.7007 14 11.3366 14 11.9996Z" fill="#FBAC35"/>
</g>
<defs>
<clipPath id="clip0_298_2029">
<rect width="17.0003" height="17.0008" fill="white" transform="translate(0 0.499611)"/>
</clipPath>
</defs>
</svg>
