<svg width="19" height="20" viewBox="0 0 19 20" fill="none" xmlns="http://www.w3.org/2000/svg">
<path d="M17.5156 12.6719H16.625V10.2969C16.6247 10.0607 16.5308 9.83437 16.3638 9.6674C16.1969 9.50043 15.9705 9.40652 15.7344 9.40625H10.0938V7.03125H11.2812C11.5174 7.03097 11.7437 6.93705 11.9107 6.77009C12.0777 6.60312 12.1716 6.37675 12.1719 6.14062V3.46875C12.1716 3.23263 12.0777 3.00625 11.9107 2.83929C11.7437 2.67232 11.5174 2.5784 11.2812 2.57812H7.71875C7.48263 2.5784 7.25625 2.67232 7.08929 2.83929C6.92232 3.00625 6.8284 3.23263 6.82812 3.46875V6.14062C6.8284 6.37675 6.92232 6.60312 7.08929 6.77009C7.25625 6.93705 7.48263 7.03097 7.71875 7.03125H8.90625V9.40625H3.26562C3.0295 9.40652 2.80312 9.50043 2.63615 9.6674C2.46918 9.83437 2.37527 10.0607 2.375 10.2969V12.6719H1.48438C1.24825 12.6721 1.02188 12.7661 0.854912 12.933C0.687947 13.1 0.594025 13.3264 0.59375 13.5625V16.2344C0.594025 16.4705 0.687947 16.6969 0.854912 16.8638C1.02188 17.0308 1.24825 17.1247 1.48438 17.125H4.45312C4.68925 17.1247 4.91562 17.0308 5.08259 16.8638C5.24955 16.6969 5.34347 16.4705 5.34375 16.2344V13.5625C5.34347 13.3264 5.24955 13.1 5.08259 12.933C4.91562 12.7661 4.68925 12.6721 4.45312 12.6719H3.5625V10.5938H8.90625V12.6719H8.01562C7.7795 12.6721 7.55313 12.7661 7.38616 12.933C7.2192 13.1 7.12528 13.3264 7.125 13.5625V16.2344C7.12528 16.4705 7.2192 16.6969 7.38616 16.8638C7.55313 17.0308 7.7795 17.1247 8.01562 17.125H10.9844C11.2205 17.1247 11.4469 17.0308 11.6138 16.8638C11.7808 16.6969 11.8747 16.4705 11.875 16.2344V13.5625C11.8747 13.3264 11.7808 13.1 11.6138 12.933C11.4469 12.7661 11.2205 12.6721 10.9844 12.6719H10.0938V10.5938H15.4375V12.6719H14.5469C14.3108 12.6721 14.0844 12.7661 13.9174 12.933C13.7504 13.1 13.6565 13.3264 13.6562 13.5625V16.2344C13.6565 16.4705 13.7504 16.6969 13.9174 16.8638C14.0844 17.0308 14.3108 17.1247 14.5469 17.125H17.5156C17.7517 17.1247 17.9781 17.0308 18.1451 16.8638C18.3121 16.6969 18.406 16.4705 18.4062 16.2344V13.5625C18.406 13.3264 18.3121 13.1 18.1451 12.933C17.9781 12.7661 17.7517 12.6721 17.5156 12.6719ZM8.01562 3.76562H10.9844V5.84375H8.01562V3.76562ZM4.15625 13.8594V15.9375H1.78125V13.8594H4.15625ZM10.6875 13.8594V15.9375H8.3125V13.8594H10.6875ZM17.2188 15.9375H14.8438V13.8594H17.2188V15.9375Z" fill="#FBAC35"/>
</svg>
