<svg width="24" height="24" viewBox="0 0 24 24" fill="none" xmlns="http://www.w3.org/2000/svg">
<path fill-rule="evenodd" clip-rule="evenodd" d="M9.99998 2.66667C9.64636 2.66667 9.30722 2.80715 9.05717 3.0572C8.80712 3.30724 8.66665 3.64638 8.66665 4.00001H6.66665C6.31302 4.00001 5.97389 4.14048 5.72384 4.39053C5.47379 4.64058 5.33331 4.97972 5.33331 5.33334V20C5.33331 20.3536 5.47379 20.6928 5.72384 20.9428C5.97389 21.1929 6.31302 21.3333 6.66665 21.3333H17.3333C17.6869 21.3333 18.0261 21.1929 18.2761 20.9428C18.5262 20.6928 18.6666 20.3536 18.6666 20V5.33334C18.6666 4.97972 18.5262 4.64058 18.2761 4.39053C18.0261 4.14048 17.6869 4.00001 17.3333 4.00001H15.3333C15.3333 3.64638 15.1928 3.30724 14.9428 3.0572C14.6927 2.80715 14.3536 2.66667 14 2.66667H9.99998ZM9.99998 4.00001H14V5.33334H9.99998V4.00001ZM12.3713 14.6667L10.7093 19.0993C10.6759 19.1818 10.6593 19.2702 10.6605 19.3592C10.6618 19.4483 10.6808 19.5361 10.7166 19.6177C10.7524 19.6992 10.8041 19.7728 10.8687 19.834C10.9334 19.8952 11.0097 19.9428 11.093 19.9741C11.1764 20.0054 11.2652 20.0196 11.3541 20.016C11.4431 20.0124 11.5304 19.991 11.611 19.9531C11.6916 19.9152 11.7637 19.8615 11.8232 19.7953C11.8827 19.729 11.9283 19.6515 11.9573 19.5673L12.7966 17.3307H14.5366L15.376 19.5673C15.405 19.6515 15.4506 19.729 15.5101 19.7953C15.5696 19.8615 15.6417 19.9152 15.7223 19.9531C15.8029 19.991 15.8902 20.0124 15.9792 20.016C16.0681 20.0196 16.1569 20.0054 16.2403 19.9741C16.3236 19.9428 16.3999 19.8952 16.4645 19.834C16.5292 19.7728 16.5809 19.6992 16.6167 19.6177C16.6525 19.5361 16.6715 19.4483 16.6728 19.3592C16.674 19.2702 16.6574 19.1818 16.624 19.0993L14.9626 14.6667H16.868C17.0448 14.6667 17.2144 14.5964 17.3394 14.4714C17.4644 14.3464 17.5346 14.1768 17.5346 14C17.5346 13.8232 17.4644 13.6536 17.3394 13.5286C17.2144 13.4036 17.0448 13.3333 16.868 13.3333H10.0013C9.8245 13.3333 9.65493 13.4036 9.52991 13.5286C9.40488 13.6536 9.33465 13.8232 9.33465 14C9.33465 14.1768 9.40488 14.3464 9.52991 14.4714C9.65493 14.5964 9.8245 14.6667 10.0013 14.6667H12.372H12.3713ZM16.6666 8.82667H7.33331V7.49334H16.6666V8.82667ZM7.33331 11.6H10.6666V10.2667H7.33331V11.6ZM15 11.3333C15 11.687 14.8595 12.0261 14.6095 12.2761C14.3594 12.5262 14.0203 12.6667 13.6666 12.6667C13.313 12.6667 12.9739 12.5262 12.7238 12.2761C12.4738 12.0261 12.3333 11.687 12.3333 11.3333C12.3333 10.9797 12.4738 10.6406 12.7238 10.3905C12.9739 10.1405 13.313 10 13.6666 10C14.0203 10 14.3594 10.1405 14.6095 10.3905C14.8595 10.6406 15 10.9797 15 11.3333Z" fill="#85B6FF"/>
<path fill-rule="evenodd" clip-rule="evenodd" d="M22 1.33333H2C1.82319 1.33333 1.65362 1.40357 1.5286 1.5286C1.40357 1.65362 1.33333 1.82319 1.33333 2V22C1.33333 22.1768 1.40357 22.3464 1.5286 22.4714C1.65362 22.5964 1.82319 22.6667 2 22.6667H22C22.1768 22.6667 22.3464 22.5964 22.4714 22.4714C22.5964 22.3464 22.6667 22.1768 22.6667 22V2C22.6667 1.82319 22.5964 1.65362 22.4714 1.5286C22.3464 1.40357 22.1768 1.33333 22 1.33333ZM2 0C1.46957 0 0.960859 0.210714 0.585787 0.585787C0.210714 0.960859 0 1.46957 0 2V22C0 22.5304 0.210714 23.0391 0.585787 23.4142C0.960859 23.7893 1.46957 24 2 24H22C22.5304 24 23.0391 23.7893 23.4142 23.4142C23.7893 23.0391 24 22.5304 24 22V2C24 1.46957 23.7893 0.960859 23.4142 0.585787C23.0391 0.210714 22.5304 0 22 0H2Z" fill="#85B6FF"/>
</svg>
