<svg width="24" height="32" viewBox="0 0 24 32" fill="none" xmlns="http://www.w3.org/2000/svg">
<path fill-rule="evenodd" clip-rule="evenodd" d="M17.708 10.292C17.8012 10.3849 17.8751 10.4952 17.9255 10.6167C17.9759 10.7382 18.0018 10.8685 18.0018 11C18.0018 11.1315 17.9759 11.2618 17.9255 11.3833C17.8751 11.5047 17.8012 11.6151 17.708 11.708L11.708 17.708C11.6152 17.8011 11.5048 17.875 11.3833 17.9254C11.2618 17.9758 11.1316 18.0018 11 18.0018C10.8685 18.0018 10.7383 17.9758 10.6168 17.9254C10.4953 17.875 10.3849 17.8011 10.292 17.708L7.29204 14.708C7.19907 14.615 7.12531 14.5046 7.075 14.3832C7.02468 14.2617 6.99878 14.1315 6.99878 14C6.99878 13.8685 7.02468 13.7383 7.075 13.6168C7.12531 13.4953 7.19907 13.385 7.29204 13.292C7.38502 13.199 7.4954 13.1253 7.61688 13.0749C7.73835 13.0246 7.86856 12.9987 8.00004 12.9987C8.13153 12.9987 8.26173 13.0246 8.38321 13.0749C8.50469 13.1253 8.61507 13.199 8.70804 13.292L11 15.586L16.292 10.292C16.3849 10.1989 16.4953 10.125 16.6168 10.0746C16.7383 10.0241 16.8685 9.9982 17 9.9982C17.1316 9.9982 17.2618 10.0241 17.3833 10.0746C17.5048 10.125 17.6152 10.1989 17.708 10.292Z" fill="#FE5D06"/>
<path d="M0 4C0 2.93913 0.421427 1.92172 1.17157 1.17157C1.92172 0.421427 2.93913 0 4 0L20 0C21.0609 0 22.0783 0.421427 22.8284 1.17157C23.5786 1.92172 24 2.93913 24 4V31C23.9999 31.1809 23.9508 31.3584 23.8578 31.5135C23.7648 31.6687 23.6315 31.7957 23.472 31.8811C23.3125 31.9665 23.1329 32.007 22.9522 31.9983C22.7715 31.9897 22.5966 31.9322 22.446 31.832L12 26.202L1.554 31.832C1.40341 31.9322 1.22846 31.9897 1.04778 31.9983C0.867105 32.007 0.687466 31.9665 0.527999 31.8811C0.368532 31.7957 0.235208 31.6687 0.142228 31.5135C0.0492481 31.3584 9.34408e-05 31.1809 0 31V4ZM4 2C3.46957 2 2.96086 2.21071 2.58579 2.58579C2.21071 2.96086 2 3.46957 2 4V29.132L11.446 24.168C11.6101 24.0588 11.8029 24.0005 12 24.0005C12.1971 24.0005 12.3899 24.0588 12.554 24.168L22 29.132V4C22 3.46957 21.7893 2.96086 21.4142 2.58579C21.0391 2.21071 20.5304 2 20 2H4Z" fill="#FE5D06"/>
</svg>
