<svg width="24" height="31" viewBox="0 0 24 31" fill="none" xmlns="http://www.w3.org/2000/svg">
<path fill-rule="evenodd" clip-rule="evenodd" d="M2.67737e-07 30.0306V3.87491C2.67737e-07 2.84722 0.421427 1.86162 1.17157 1.13494C1.92172 0.408248 2.93913 0 4 0L20 0C21.0609 0 22.0783 0.408248 22.8284 1.13494C23.5786 1.86162 24 2.84722 24 3.87491V30.0306C24.0001 30.1988 23.955 30.3641 23.8692 30.5104C23.7833 30.6566 23.6596 30.7786 23.5102 30.8644C23.3609 30.9503 23.191 30.9969 23.0174 30.9999C22.8438 31.0028 22.6723 30.9619 22.52 30.8811L12 25.3206L1.48 30.8811C1.32766 30.9619 1.15624 31.0028 0.98261 30.9999C0.808982 30.9969 0.639134 30.9503 0.489784 30.8644C0.340433 30.7786 0.216729 30.6566 0.130849 30.5104C0.0449691 30.3641 -0.000126788 30.1988 2.67737e-07 30.0306ZM17.708 11.3419C17.8958 11.16 18.0013 10.9133 18.0013 10.656C18.0013 10.3988 17.8958 10.152 17.708 9.97015C17.5202 9.78824 17.2656 9.68605 17 9.68605C16.7344 9.68605 16.4798 9.78824 16.292 9.97015L11 15.0986L8.708 12.8763C8.61502 12.7863 8.50465 12.7148 8.38317 12.6661C8.26169 12.6173 8.13149 12.5922 8 12.5922C7.86851 12.5922 7.73831 12.6173 7.61683 12.6661C7.49535 12.7148 7.38498 12.7863 7.292 12.8763C7.19902 12.9664 7.12527 13.0733 7.07495 13.191C7.02464 13.3087 6.99874 13.4348 6.99874 13.5622C6.99874 13.6896 7.02464 13.8157 7.07495 13.9334C7.12527 14.0511 7.19902 14.158 7.292 14.248L10.292 17.1542C10.3849 17.2444 10.4952 17.316 10.6167 17.3649C10.7382 17.4137 10.8685 17.4388 11 17.4388C11.1315 17.4388 11.2618 17.4137 11.3833 17.3649C11.5048 17.316 11.6151 17.2444 11.708 17.1542L17.708 11.3419Z" fill="#FE5D06"/>
</svg>
