<svg width="11" height="11" viewBox="0 0 11 11" fill="none" xmlns="http://www.w3.org/2000/svg">
<path d="M9.755 3.79307L7.02756 3.39668L5.80832 0.924903C5.77502 0.857228 5.72023 0.802442 5.65255 0.769142C5.48283 0.685352 5.27658 0.755177 5.19171 0.924903L3.97248 3.39668L1.24503 3.79307C1.16984 3.80381 1.10109 3.83926 1.04845 3.89297C0.984815 3.95838 0.949749 4.04637 0.950958 4.13761C0.952167 4.22886 0.98955 4.31589 1.0549 4.37959L3.02824 6.30352L2.56203 9.02022C2.55109 9.08341 2.55809 9.14841 2.58221 9.20783C2.60634 9.26726 2.64663 9.31873 2.69852 9.35642C2.75042 9.39411 2.81183 9.41651 2.8758 9.42107C2.93978 9.42563 3.00375 9.41217 3.06046 9.38223L5.50002 8.09961L7.93957 9.38223C8.00617 9.41768 8.08351 9.42949 8.15764 9.4166C8.34455 9.38438 8.47023 9.20713 8.43801 9.02022L7.97179 6.30352L9.94514 4.37959C9.99885 4.32695 10.0343 4.2582 10.045 4.18301C10.074 3.99502 9.94299 3.821 9.755 3.79307Z" fill="#7F7F7F"/>
</svg>
